<svg xmlns="http://www.w3.org/2000/svg" viewBox="0 0 1001 641.61"><defs><style>.cls-1{fill:none;stroke:#666;}</style></defs><g id="Layer_2" data-name="Layer 2"><g id="Layer_1-2" data-name="Layer 1"><path class="cls-1" d="M986.49,12.63V622.27L751.18,611.76a88.92,88.92,0,0,0-13.15.39L499.32,638,264.48,610.59a88.4,88.4,0,0,0-14.3-.37l-235.51,12V12.05l190.72-11c6.67-.4,13.36-.58,20-.55A312.23,312.23,0,0,1,279,5.43L499.22,45.24l.89-.15,226.34-36a341.23,341.23,0,0,1,51-4.24c1.95,0,3.91,0,5.86,0,3.29,0,6.54.13,9.83.25Z"/><path class="cls-1" d="M993.79,13.22v617.3L756.38,614.37c-4.41-.18-9.07-1.1-13.47-.61L500.23,641.1,263.47,613.76c-4.79-.59-10.43-1.44-15.32-1.24l-239.82,18V13l1.57-.1,11.54-.69v-.18l187.93-11C215.94.65,222.53.47,229.1.5a299.15,299.15,0,0,1,55.14,4.93L499.76,45.09l223-36A331.33,331.33,0,0,1,773,4.89c1.93,0,3.86,0,5.78,0,3.47,0,6.93.12,10.4.25L979,12.63h.1Z"/><path class="cls-1" d="M1000.5,13.79V638l-244.13-21.5a114.4,114.4,0,0,0-15.38.28L498.89,641.1l-238.32-23a155,155,0,0,0-19-.56L.5,638V13.79L13.38,13l1.55-.1,11.39-.69,3.15-.18,184.87-11C220,.7,225.64.52,231.28.5A291.47,291.47,0,0,1,285.7,5.43L498.42,45.09l.75.15L719.46,9.13a321.31,321.31,0,0,1,48.68-4.24q2.85,0,5.7,0c3.42,0,6.84.12,10.26.25l187.34,7.49h.09l14.49.59h0Z"/></g></g></svg>