<svg xmlns="http://www.w3.org/2000/svg" viewBox="0 0 78.07 117.66"><defs><style>.cls-1{fill:#fff;}.cls-2{fill:none;}</style></defs><g id="Layer_2" data-name="Layer 2"><g id="Layer_1-2" data-name="Layer 1"><path class="cls-1" d="M68.11,87A39,39,0,0,0,66,74.25C64.45,70.14,61.94,67,57.16,66c3.68-3.37,4.27-7,1.75-10a6.82,6.82,0,0,0-9.18-1.1A6.31,6.31,0,0,0,47.12,59c-.5,2.89.66,5.15,3.18,7a9.65,9.65,0,0,0-7.44,4.66A18.33,18.33,0,0,0,41,74.44c-1.83,5.46-1.83,11.12-1.64,16.77A3.09,3.09,0,0,0,42.05,94c.34.07.68.1,1.12.16v4.7c0,1.2,0,2.39,0,3.58,0,3,0,6,.05,9a9.65,9.65,0,0,0,.87,3.73,4.37,4.37,0,0,0,7.79,0,9.64,9.64,0,0,0,.86-3.73c.05-3,.06-6,.05-9,0-1.19,0-2.38,0-3.58V94.18h1.92v1.37c0,1.11,0,2.23,0,3.34s0,2.39,0,3.58c0,3,0,6.06.06,9.08a8.49,8.49,0,0,0,1,3.81,4.3,4.3,0,0,0,7.6,0,8.67,8.67,0,0,0,1-3.92c.06-3,.06-6,.06-9,0-1.19,0-2.39,0-3.58s0-2.29,0-3.43V94.22c3.1-.51,3.82-1.35,3.84-4.32C68.13,88.92,68.14,87.94,68.11,87ZM50.89,59.73a1.18,1.18,0,0,1,0-.2,1.61,1.61,0,0,1,.09-.29,1.19,1.19,0,0,1,.08-.2l.09-.16a1.08,1.08,0,0,1,.11-.18,2,2,0,0,1,.17-.23l0,0,.2-.21A1.94,1.94,0,0,1,52,58a1.07,1.07,0,0,1,.22-.15l.39-.21a1.17,1.17,0,0,1,.26-.1l.27-.07a.65.65,0,0,1,.27-.05,1.33,1.33,0,0,1,.28,0H54a1.69,1.69,0,0,1,.55.12l.21.07a1.23,1.23,0,0,1,.26.12,2.94,2.94,0,0,1,.71.5,2.71,2.71,0,0,1,.35.41,2.48,2.48,0,0,1,.27.47,2.84,2.84,0,0,1,.23,1.09,2.74,2.74,0,0,1-.85,2,3.65,3.65,0,0,1-.43.35,1.75,1.75,0,0,1-.27.16l-.28.13-.3.1-.32.07a3,3,0,0,1-.43,0h-.31a1.46,1.46,0,0,1-.22,0l-.08,0-.25-.07a2.13,2.13,0,0,1-.35-.14.94.94,0,0,1-.22-.12l-.16-.1a2.52,2.52,0,0,1-.52-.46c-.06-.07-.12-.13-.17-.2l-.14-.21a1.71,1.71,0,0,1-.13-.23,2.55,2.55,0,0,1-.13-.29,2,2,0,0,1-.08-.26,1.61,1.61,0,0,1-.08-.38,1.84,1.84,0,0,1,0-.33A2,2,0,0,1,50.89,59.73Zm-2,42.74c0,2.89,0,5.79,0,8.68a8.52,8.52,0,0,1-.33,2.07,1,1,0,0,1-.67.54h0a.19.19,0,0,1-.1,0,1,1,0,0,1-.44-.48,4.48,4.48,0,0,1-.33-1.48q0-4.65,0-9.3V94.6a2.35,2.35,0,0,1,.11-.46h1.74c0,.39.06.76.06,1.13Zm1-12.26v-5c0-1.54-.75-2.43-2-2.4a2,2,0,0,0-.36,0l-.13,0a1,1,0,0,0-.3.11,1,1,0,0,0-.25.15l-.07,0a1,1,0,0,0-.2.2l-.09.11h0a.82.82,0,0,0-.12.2v0l-.06.12a.34.34,0,0,0-.05.14,1.07,1.07,0,0,0-.09.27,1.28,1.28,0,0,0-.07.34,1.24,1.24,0,0,0,0,.27c0,.11,0,.22,0,.34,0,1.65,0,3.28,0,5H43.17c0-.62,0-1.26,0-1.9,0-4.4.14-8.79,1.62-13,.07-.21.14-.41.22-.6s.14-.36.22-.53a2.07,2.07,0,0,1,.15-.34c.1-.22.21-.44.31-.64s.17-.29.26-.43.18-.28.27-.41.18-.26.28-.38a3.17,3.17,0,0,1,.3-.34c.09-.09.17-.18.26-.26l.24-.22a2.51,2.51,0,0,1,.32-.25l.3-.2a6.71,6.71,0,0,1,.65-.35l.25-.11,0,0,.18-.07s0,0,0,0l.56-.17.4-.1a0,0,0,0,1,0,0,1.35,1.35,0,0,1,.36-.07s0,0,0,0l.44-.06a14.67,14.67,0,0,1,2-.11h2.07c.25,0,.48,0,.71.05l.32,0,.38,0a2.29,2.29,0,0,1,.36.07l.37.08a3.74,3.74,0,0,1,.45.12,6.14,6.14,0,0,1,2,1,3.67,3.67,0,0,1,.43.37,2.23,2.23,0,0,1,.26.27,3.58,3.58,0,0,1,.26.29c.11.13.22.27.32.41a8.84,8.84,0,0,1,.9,1.52.89.89,0,0,1,.08.17c.1.19.18.39.27.59,2.09,5,2.24,10.2,2.24,15.56H61.41c0-1.87,0-3.7,0-5.53a1.88,1.88,0,0,0-1.95-1.94,1.9,1.9,0,0,0-1.87,1.92c0,.31,0,.62,0,.94v4.56Zm10.56,12.26c0,2.93,0,5.87,0,8.8a7.23,7.23,0,0,1-.32,2,.54.54,0,0,1-.07.13,1,1,0,0,1-.4.34.53.53,0,0,1-.2.07.22.22,0,0,1-.16-.05,1,1,0,0,1-.16-.12.9.9,0,0,1-.24-.33,3.91,3.91,0,0,1-.32-1.37q0-4.71,0-9.42V94.61a2.4,2.4,0,0,1,.11-.47h1.73c0,.39.06.76.06,1.14Z"/><path class="cls-1" d="M39.72,0c-.29,1.09-.65,2.16-1,3.23Q29.28,33.78,19.81,64.32,11.89,89.87,4,115.41c-.34,1.08-.66,2.15-1.93,2.21a1.91,1.91,0,0,1-2-2.63q1.77-5.8,3.58-11.6Q19.7,51.7,35.7,0Z"/><path class="cls-1" d="M78.07,20.37v13Q73,16.82,67.83.32c0-.11-.07-.22-.1-.32h4c.31,1,.6,1.93.9,2.9Z"/><path class="cls-1" d="M51.81,23.47c0-1.76,0-3.52,0-5.29,0-1.42.7-2.22,1.88-2.24s1.94.78,2,2.18c0,3.56,0,7.12,0,10.68,0,1.4-.74,2.2-1.94,2.18s-1.88-.81-1.89-2.23C51.79,27,51.81,25.23,51.81,23.47Z"/><path class="cls-1" d="M55.65,42.29c0,1.77,0,3.53,0,5.29,0,1.42-.7,2.22-1.88,2.24s-1.94-.78-1.95-2.18q0-5.34,0-10.68c0-1.4.75-2.2,1.94-2.18s1.88.81,1.89,2.23C55.66,38.77,55.65,40.53,55.65,42.29Z"/><path class="cls-2" d="M64.27,90.26H61.4c0-1.87,0-3.7,0-5.53a1.87,1.87,0,0,0-2-1.94,1.91,1.91,0,0,0-1.87,1.92c0,.31,0,.62,0,.94v4.56H49.88c0-1.68,0-3.35,0-5s-.74-2.43-2-2.4-1.85.89-1.85,2.4,0,3.29,0,5H43.17V88.31c0-4.4.14-8.79,1.61-13s3.52-5.69,8.08-5.69h1.32c4.14,0,6.28,1.35,7.85,5.09C64.13,79.67,64.27,84.9,64.27,90.26Z"/><rect class="cls-1" x="47.13" y="94.13" width="1.74" height="0.01"/><path class="cls-2" d="M53.67,57.38a2.87,2.87,0,0,1,2.93,2.79,2.88,2.88,0,1,1-2.93-2.79Z"/><rect class="cls-1" x="7.73" y="98.89" width="39.29" height="3.58"/><rect class="cls-1" x="48.93" y="98.89" width="9.62" height="3.58"/><rect class="cls-1" x="60.45" y="98.89" width="17.62" height="3.58"/><path class="cls-1" d="M56.35,8.51a3.68,3.68,0,0,1-6.29-2.32h4.13c1.28,0,2.83,0,4,0h1.22c0-.25,0-.5-.09-.74l0-.15a8.18,8.18,0,0,0-1.35-3.53h0A5.9,5.9,0,0,0,56.54.64,4.52,4.52,0,0,0,56,.41h0a.41.41,0,0,0-.28,0,3.63,3.63,0,0,1-3.82,0,.81.81,0,0,0-.54,0,5.3,5.3,0,0,0-.72.34,5.22,5.22,0,0,0-1.11.93h0a6,6,0,0,0-1.2,5.83,5.58,5.58,0,0,0,6.32,3.87A5.4,5.4,0,0,0,58.4,8.92l-1.61-.78A3.69,3.69,0,0,0,56.35,8.51ZM53.68,1.72a3.62,3.62,0,0,1,3.53,2.76h-7A3.55,3.55,0,0,1,53.68,1.72Z"/><path class="cls-1" d="M57.92,1.76h0A3.87,3.87,0,0,0,56.54.64,4.52,4.52,0,0,0,56,.41h0A6.6,6.6,0,0,0,53.72,0,6.52,6.52,0,0,0,51.4.41a5.3,5.3,0,0,0-.72.34,3.79,3.79,0,0,0-1.11.93h0a2.27,2.27,0,0,0-.52,1.41c0,1.61,1.84,2.93,4.19,3.09h.95C56.54,6,58.38,4.71,58.38,3.1A2.24,2.24,0,0,0,57.92,1.76ZM50.25,4.48a3.55,3.55,0,0,1,3.43-2.76,3.62,3.62,0,0,1,3.53,2.76Z"/></g></g></svg>