<svg xmlns="http://www.w3.org/2000/svg" viewBox="0 0 57.47 77.44"><defs><style>.cls-1{fill:#4f4e50;}</style></defs><g id="Layer_2" data-name="Layer 2"><g id="Layer_1-2" data-name="Layer 1"><path class="cls-1" d="M50.15,8a.91.91,0,0,1-1.56-.58h2.32c0-.06,0-.13,0-.19v0a2.11,2.11,0,0,0-.34-.88h0A1.34,1.34,0,0,0,50.2,6l-.12,0H50a.88.88,0,0,1-1,0h-.13L48.74,6a1.18,1.18,0,0,0-.27.23h0a1.5,1.5,0,0,0-.29,1.45,1.39,1.39,0,0,0,1.57,1,1.36,1.36,0,0,0,.92-.62l-.4-.2Zm-.66-1.69a.9.9,0,0,1,.88.69H48.64A.88.88,0,0,1,49.49,6.27Z"/><path class="cls-1" d="M50.54,6.28h0A1,1,0,0,0,50.2,6l-.12,0a1.58,1.58,0,0,0-1.16,0L48.74,6a.87.87,0,0,0-.27.23h0a.59.59,0,0,0-.12.35c0,.4.45.73,1,.77h.24c.58,0,1-.37,1-.77A.54.54,0,0,0,50.54,6.28ZM48.64,7a.88.88,0,0,1,.85-.69.9.9,0,0,1,.88.69Z"/><path class="cls-1" d="M57.2,35.31V77.38H29.89c0-.06,0-.12-.05-.18,1.16-.46,2.32-.91,3.47-1.4a42.63,42.63,0,0,0,11.47-6.58c.4-.34.78-.69,1.15-1.06,3.89-3.9,4.36-8.23,1.13-12.71A68.29,68.29,0,0,0,42,49.73c-.53-.59-1.18-1.09-1.67-1.71-1-1.23-1-2.29.21-3.25a32.62,32.62,0,0,1,4.93-3.09c1.84-1,3.87-1.54,5.67-2.55,2-1.14,3.91-2.57,6-4A1,1,0,0,1,57.2,35.31Z"/><path class="cls-1" d="M57.2,6.26a2.61,2.61,0,0,0-.83-.7Q51.92,3,47.43.45C45.76-.49,44.85.05,44.85,2c0,5.55,0,11.1,0,16.64a3.82,3.82,0,0,1-.38,1.71Q36.17,35.91,27.84,51.47c-.39.72-.8,1.42-1.27,2.26L17.25,43.07C11.47,54.57,5.77,65.89,0,77.36c.37,0,.52.08.67.08l18.2,0a3.77,3.77,0,0,0,1.06-.15c6.59-2,13.06-4.26,19-7.81a34.67,34.67,0,0,0,5.66-4.36,5,5,0,0,0,1-6.36,17.33,17.33,0,0,0-2.28-3.49C42,53.74,40.47,52.39,39,51c-3.31-3.22-3.11-6.68.63-9.36a28,28,0,0,1,3.82-2.23c2.1-1,4.33-1.86,6.39-3a49.91,49.91,0,0,0,4.85-3.24c.63-.45.66-1,.21-1.74-1.82-3-3.4-6.07-5.35-8.93A10.25,10.25,0,0,1,47.65,15a2.26,2.26,0,0,1,.78-1.4c2.65-1.79,5.35-3.49,8-5.24a2.78,2.78,0,0,0,.75-.67A1.12,1.12,0,0,0,57.2,6.26ZM47.75,10.7V3.85l5.62,3.22Z"/><path class="cls-1" d="M57.2,7.72V6.26A1.12,1.12,0,0,1,57.2,7.72Z"/></g></g></svg>