<svg xmlns="http://www.w3.org/2000/svg" viewBox="0 0 71.82 159.43"><defs><style>.cls-1{fill:#fff;}</style></defs><g id="Layer_2" data-name="Layer 2"><g id="Layer_1-2" data-name="Layer 1"><path class="cls-1" d="M21.78,15.61a2.25,2.25,0,0,1-3,.22,2.32,2.32,0,0,1-.91-1.66h2.56c.79,0,1.74,0,2.45,0h.75a3.4,3.4,0,0,0-.06-.46v-.09a5.18,5.18,0,0,0-.83-2.19h0a3.74,3.74,0,0,0-.85-.7,2.71,2.71,0,0,0-.3-.13h0a.31.31,0,0,0-.17,0,2.21,2.21,0,0,1-2.36,0,.51.51,0,0,0-.33,0,3.61,3.61,0,0,0-.44.21,3.54,3.54,0,0,0-.69.58h0A3.7,3.7,0,0,0,16.86,15a3.44,3.44,0,0,0,3.9,2.41,3.3,3.3,0,0,0,2.29-1.54l-1-.48A2.91,2.91,0,0,0,21.78,15.61Zm-1.64-4.22a2.25,2.25,0,0,1,2.18,1.71H18A2.2,2.2,0,0,1,20.14,11.39Z"/><path class="cls-1" d="M22.76,11.42h0a2.3,2.3,0,0,0-.85-.7,2.71,2.71,0,0,0-.3-.13h0a3.83,3.83,0,0,0-1.43-.26,4,4,0,0,0-1.43.25,3.61,3.61,0,0,0-.44.21,2.5,2.5,0,0,0-.69.58h0a1.44,1.44,0,0,0-.32.88c0,1,1.13,1.82,2.59,1.92h.59c1.45-.1,2.58-.92,2.58-1.92A1.41,1.41,0,0,0,22.76,11.42ZM18,13.1a2.2,2.2,0,0,1,2.12-1.71,2.25,2.25,0,0,1,2.18,1.71Z"/><path class="cls-1" d="M60.05,70.85a1.58,1.58,0,0,1-2.69-1h4c0-.11,0-.21,0-.32v-.06A3.51,3.51,0,0,0,60.73,68h0a3.13,3.13,0,0,0-.59-.47l-.22-.1h0a.23.23,0,0,0-.12,0,1.52,1.52,0,0,1-1.63,0,.3.3,0,0,0-.23,0l-.31.14a2.68,2.68,0,0,0-.48.4h0a2.52,2.52,0,0,0-.51,2.5,2.38,2.38,0,0,0,2.71,1.65,2.26,2.26,0,0,0,1.58-1l-.69-.34Zm-1.14-2.91a1.55,1.55,0,0,1,1.51,1.18h-3A1.52,1.52,0,0,1,58.91,67.94Z"/><path class="cls-1" d="M60.73,68h0a1.66,1.66,0,0,0-.59-.47l-.22-.1h0a2.81,2.81,0,0,0-2,0l-.31.14a1.76,1.76,0,0,0-.48.4h0a1,1,0,0,0-.22.6c0,.69.79,1.26,1.79,1.32h.41c1-.06,1.8-.63,1.8-1.32A.94.94,0,0,0,60.73,68Zm-3.29,1.16a1.52,1.52,0,0,1,1.47-1.18,1.55,1.55,0,0,1,1.51,1.18Z"/><path class="cls-1" d="M41.36,0Q21.53,0,1.7,0H0V10.3H3.68v0H14.16v0h7.59c6.64,0,13.27,0,19.91,0a5.06,5.06,0,0,0,5-3.23C48,3.52,45.45,0,41.36,0ZM71.81,40.25a9.68,9.68,0,0,0-.28-2.46,5.11,5.11,0,0,0-7.68-3A5.67,5.67,0,0,0,61.36,40V75.17c0,8,0,15.9,0,23.79a14.43,14.43,0,0,0,.24,2.62A5,5,0,0,0,68,105.42c2.59-.74,3.85-2.74,3.85-6.16Q71.82,69.76,71.81,40.25ZM56.54,75.17h0V64.62c0-2.78,0-5.46,0-8.14,0-6,0-12-.17-17.94a4.4,4.4,0,0,0-3.79-4.28c-1.8-.3-3.65-.31-5.46-.45a2.16,2.16,0,0,1-.08-.38c0-3.32-.16-6.65,0-10,.22-3.79-2.64-6.11-6-6.06-8.4.12-16.8,0-25.2,0H0V27.84H36.73c0,3.54,0,7,0,10.46,0,4.17,1.89,6,6.06,6.05H46V95.3H32.59c-3.52,0-5.74,2.14-5.78,5.66,0,4.15,0,8.29,0,12.43,0,.25,0,.5-.07.9H20.33A5.12,5.12,0,0,0,15,119.5q-.09,7.16,0,14.32a5.09,5.09,0,0,0,5.17,5.07c1.35,0,2.7,0,4.05,0h4.13c0,1.32.06,2.6,0,3.86,0,.31-.55.68-.92.84q-5.91,2.67-11.86,5.25a4.77,4.77,0,0,1-1.8.31H0V159.4c5.09,0,10.19,0,15.28,0a6.13,6.13,0,0,0,2.43-.34Q27,155,36.17,150.83a4.2,4.2,0,0,0,2.41-4c0-4.46,0-8.92,0-13.38a4.39,4.39,0,0,0-2.72-4.18,7.31,7.31,0,0,0-2.66-.59c-2.62-.07-5.23,0-7.83,0v-4.06c2.16,0,4.24-.13,6.29,0a5.19,5.19,0,0,0,5.51-4.88c.08-4.07,0-8.14.05-12.21v-1.9c4.51,0,8.8-.13,13.09,0,3.82.14,6.32-2.13,6.27-6.29-.09-7.53-.07-15.06-.09-22.6C56.47,76.22,56.52,75.67,56.54,75.17Z"/></g></g></svg>