<svg xmlns="http://www.w3.org/2000/svg" viewBox="0 0 63.79 90.36"><defs><style>.cls-1{fill:#fff;}.cls-2{fill:#6f2332;}</style></defs><g id="Layer_2" data-name="Layer 2"><g id="Layer_1-2" data-name="Layer 1"><path class="cls-1" d="M45,53c-.64.2-.88.67-1.22,1-4.65,4.6-10.33,6.4-16.75,6.16C12.48,59.63,1.32,47.83.14,33.34-.82,21.48,3,11.53,13.05,4.77c8.12-5.47,17-6.38,26-2a20.51,20.51,0,0,1,6,4.9c0-1.75,0-3.11,0-4.47,0-.91.21-1.27,1.2-1.26Q54.46,2,62.64,2c.88,0,1.15.25,1.15,1.16,0,17.69,0,35.38-.08,53.07a40.93,40.93,0,0,1-3.29,16.05C57,80.1,51.36,85.6,43.18,88.22c-10.62,3.39-21,2.83-31.07-2.29a26.77,26.77,0,0,1-4-2.6.82.82,0,0,1-.29-1.24c2.27-4.2,4.53-8.4,6.73-12.63.5-1,.92-.37,1.35-.09a23.32,23.32,0,0,0,13.62,4.06,15.24,15.24,0,0,0,15.1-13A31.37,31.37,0,0,0,45,53Z"/><path class="cls-2" d="M18.69,30.22A13.32,13.32,0,0,1,31.84,17,13.42,13.42,0,0,1,45.08,30.18,13.4,13.4,0,0,1,32,43.37,13.31,13.31,0,0,1,18.69,30.22Z"/></g></g></svg>