<svg xmlns="http://www.w3.org/2000/svg" viewBox="0 0 72.23 128.77"><defs><style>.cls-1{fill:#fff;}</style></defs><g id="Layer_2" data-name="Layer 2"><g id="Layer_1-2" data-name="Layer 1"><path class="cls-1" d="M50.85,16.09H72.23V0H46.32a4.49,4.49,0,0,1-.56.24C41,1.31,37.69,4.17,36.52,8.93A30.92,30.92,0,0,0,36,16.27q0,49.41,0,98.82v1.61c-3.4,0-6.58,0-9.76,0A2,2,0,0,0,24,119q0,3.7,0,7.42c0,1.63.73,2.33,2.4,2.33H72.23V52.31H50.6c-1.76,0-2.51-.75-2.51-2.51q0-15.46,0-30.93C48.09,16.74,48.74,16.09,50.85,16.09Z"/><path class="cls-1" d="M10,37.12a2.71,2.71,0,0,1-3.54.27,2.74,2.74,0,0,1-1.08-2h3c.94,0,2.07,0,2.91,0h.89a5,5,0,0,0-.06-.54l0-.11a6.07,6.07,0,0,0-1-2.58h0a4.58,4.58,0,0,0-1-.82l-.37-.16H9.66a.25.25,0,0,0-.13,0,2.64,2.64,0,0,1-2.8,0,.63.63,0,0,0-.39,0,4.27,4.27,0,0,0-.53.24,4.48,4.48,0,0,0-.81.69H5a4.38,4.38,0,0,0-.87,4.28,4.08,4.08,0,0,0,4.63,2.84,4,4,0,0,0,2.72-1.81l-1.18-.58A4.11,4.11,0,0,0,10,37.12Zm-2-5a2.65,2.65,0,0,1,2.59,2H5.5A2.6,2.6,0,0,1,8,32.15Z"/><path class="cls-1" d="M11.12,32.18h0a3,3,0,0,0-1-.82l-.37-.16a5,5,0,0,0-3.4,0,4.27,4.27,0,0,0-.53.24,2.76,2.76,0,0,0-.81.69H5a1.7,1.7,0,0,0-.37,1c0,1.18,1.34,2.15,3.07,2.26h.7c1.72-.11,3.07-1.08,3.07-2.26A1.64,1.64,0,0,0,11.12,32.18Zm-5.62,2a2.6,2.6,0,0,1,2.51-2,2.65,2.65,0,0,1,2.59,2Z"/><path class="cls-1" d="M20.54,65.32a11.43,11.43,0,0,0-.4,3c0,4.61,0,9.22,0,13.83a6,6,0,1,1-12.07,0Q8,64,8,45.92V44.34c7.53-.89,10.56-9.8,5.7-16.63l6.16-8.48c1.11-1.53,2.23-3.05,3.32-4.58a4,4,0,1,0-6.43-4.83q-8,11-16,22.06A4.43,4.43,0,0,0,0,34.34Q0,58.65,0,83c0,6.86,5.49,12.68,12.61,13.55a14.12,14.12,0,0,0,15-10.2,15.94,15.94,0,0,0,.52-4c.07-4.44,0-8.88,0-13.32,0-3.16,1.53-4.67,4.73-4.67h3.23V56.5C28.57,55.38,22.55,58.37,20.54,65.32ZM2.61,35.1A5.44,5.44,0,1,1,8,40.53,5.43,5.43,0,0,1,2.61,35.1Z"/></g></g></svg>