<svg xmlns="http://www.w3.org/2000/svg" viewBox="0 0 151.4 170.35"><defs><style>.cls-1{opacity:0.8;}.cls-2{fill:none;stroke:#fff;stroke-miterlimit:10;stroke-width:2px;}</style></defs><g id="Layer_2" data-name="Layer 2"><g id="Layer_1-2" data-name="Layer 1"><g class="cls-1"><path class="cls-2" d="M83,105.18c-12.49,0-25,.13-37.47-.08-4.07-.07-5,1.31-3.85,5,3.85,12.72,11.69,21.76,24.67,25.21,12.69,3.38,23.72-.56,32.72-9.89,2.08-2.15,3.61-2.88,6.31-1.32a38,38,0,0,0,7.74,3.43c4.35,1.35,4.07,3.29,1.51,6.32-13.26,15.74-30.17,22.5-50.26,18.5-20.83-4.14-34-17.73-39.69-37.93C17.8,90.07,28.67,64.67,50,53.25c3-1.62,5.85-2.44,8.9-.62,11.27,6.74,22.5,6.65,33.69-.12,2.26-1.37,4.16-.37,6,.73C116.91,63.88,125.88,79.86,126,101c0,3.4-1.46,4.23-4.53,4.21-12.82-.1-25.64,0-38.47,0ZM74.34,89.63v0c9.49,0,19,0,28.48,0,2.58,0,4.19-.1,3-3.54-4.46-12.3-17.85-21.61-31.48-21.61s-26.39,9-31,21.36c-1.34,3.62.13,3.86,3.05,3.83C55.68,89.57,65,89.63,74.34,89.63Z"/><path class="cls-2" d="M1.25,24.69c24.09-7.86,48-15.63,71.84-23.45a6.66,6.66,0,0,1,4.37.37c22.79,7.36,45.57,14.8,68.41,22,3.49,1.1,4.83,2.73,4.48,6.35-.32,3.28-.07,6.61-.65,10-2.91-2.29-2.21-5.56-2.28-8.41-.11-4.48-1.58-5.34-5.77-3.67C121.4,36,101,43.76,80.77,51.82a12.79,12.79,0,0,1-10,.11C48.36,43.4,25.89,35.07,3.44,26.67A2.64,2.64,0,0,1,1.25,24.69Z"/><path class="cls-2" d="M38.49,45.47C27.71,53.1,19.13,62.32,14.31,74.37c-9.87,24.7-6.75,47.68,10.49,68.19,3.22,3.84,4.05,6.57.76,10.59-2.37,2.9-4,6.38-6.55,10.46,8.11-.4,15-2.25,21.85-3.54a15.58,15.58,0,0,1,8.78.61c31.18,11.94,65.16.42,81.15-27.41,16.71-29.08,9.8-63.65-17-85.08L111,46c2.38-2.3,4.24-2.07,6.62-.21,35.6,27.93,33.84,84.58-3.59,110.33-19.42,13.36-40.5,16.17-62.84,8.81a20.06,20.06,0,0,0-10.71-.72c-8.48,1.71-17,3.23-25.53,4.78-1.06.19-2.41,1-3.16-.35-.57-1,.47-1.84,1-2.65,3-4.82,5.85-9.71,9.05-14.37,1.95-2.84,1.62-4.71-.63-7.35a69,69,0,0,1,9.28-98.48C33,43.68,35.24,42.86,38.49,45.47Z"/></g></g></g></svg>