<svg xmlns="http://www.w3.org/2000/svg" viewBox="0 0 148.42 167.14"><defs><style>.cls-1,.cls-2{fill:none;}.cls-1{stroke:#600;stroke-miterlimit:10;stroke-width:4px;}.cls-3{fill:#e6e6e6;}.cls-4{fill:#600;}</style></defs><g id="Layer_2" data-name="Layer 2"><g id="Layer_3" data-name="Layer 3"><g id="Layer_7" data-name="Layer 7"><path class="cls-1" d="M138.42,98a67.42,67.42,0,0,0-.34-6.85,66.2,66.2,0,0,0-1-6.65,66.87,66.87,0,0,0-3.9-12.58c-.85-2-1.79-4-2.82-5.86s-2.15-3.74-3.36-5.52-2.49-3.5-3.86-5.16-2.8-3.24-4.32-4.76-3.1-3-4.76-4.32-3.37-2.65-5.16-3.86-3.62-2.32-5.52-3.35a67.77,67.77,0,0,0-12-5.08q-3.15-1-6.42-1.65a63.22,63.22,0,0,0-6.66-1,67.21,67.21,0,0,0-13.7,0,63.43,63.43,0,0,0-6.65,1Q54.65,33,51.5,34c-2.1.65-4.15,1.41-6.16,2.26s-4,1.79-5.85,2.82S35.75,41.24,34,42.44s-3.5,2.49-5.15,3.86-3.25,2.81-4.76,4.32-3,3.11-4.33,4.76-2.65,3.38-3.85,5.16-2.33,3.63-3.36,5.52-2,3.86-2.82,5.86a64.57,64.57,0,0,0-2.25,6.16A62.24,62.24,0,0,0,5.79,84.5a66.2,66.2,0,0,0-1,6.65,67.21,67.21,0,0,0,0,13.7,66.2,66.2,0,0,0,1,6.65,62.24,62.24,0,0,0,1.65,6.42,64.57,64.57,0,0,0,2.25,6.16c.85,2,1.79,4,2.82,5.86s2.15,3.74,3.36,5.52,2.49,3.5,3.85,5.16,2.81,3.24,4.33,4.76S26,149.18,20.42,157c-2.87,4.05-5,7-5,7s6.48-1.49,13.46-2.77,14.46-2.34,16.46-1.5,4.06,1.61,6.16,2.26,4.24,1.2,6.42,1.65a63.43,63.43,0,0,0,6.65,1,67.21,67.21,0,0,0,13.7,0,63.22,63.22,0,0,0,6.66-1Q88.2,163,91.35,162a67.77,67.77,0,0,0,12-5.08q2.85-1.54,5.52-3.35c1.79-1.21,3.51-2.49,5.16-3.86s3.24-2.81,4.76-4.32,3-3.11,4.32-4.76,2.66-3.38,3.86-5.16,2.33-3.63,3.36-5.52,2-3.86,2.82-5.86a66.87,66.87,0,0,0,3.9-12.58,66.2,66.2,0,0,0,1-6.65A67.42,67.42,0,0,0,138.42,98Z"/><path d="M93.81,50.35a49.64,49.64,0,0,0-41.27-.7c-18.29,8-31.12,26.76-31.12,48.6,0,29.13,22.83,52.75,51,52.75a50.49,50.49,0,0,0,42.12-23L99.8,120.33A33.34,33.34,0,0,1,72.42,135c-17.5,0-31.91-14-33.79-32H32.42V88H40c4.39-14.5,17.22-25,32.38-25s28,10.5,32.38,25h11.62v14.93h6.8c.13-1.54.2-3.1.2-4.67A52.9,52.9,0,0,0,93.81,50.35Z"/><path d="M38.42,99a37.71,37.71,0,0,0,.21,4H32.42V88H40A37.91,37.91,0,0,0,38.42,99Z"/><path d="M122.42,99a27.07,27.07,0,0,1-.28,3.94L66,103H26.72a26.53,26.53,0,0,1-.3-4,27.89,27.89,0,0,1,2.29-11h91.43A27.88,27.88,0,0,1,122.42,99Z"/><path class="cls-2" d="M106.22,102.94a.13.13,0,0,0,0,.06H66.42Z"/><path d="M116.42,88v14.93h-10.2a39.37,39.37,0,0,0,.2-3.94,37.91,37.91,0,0,0-1.62-11Z"/><rect x="26.42" y="96" width="12" height="11"/><rect x="27.42" y="86" width="12" height="6"/><rect x="105.42" y="86" width="13" height="5"/></g><path class="cls-3" d="M0,29.62l4.53-1.48,4.52-1.47,4.53-1.48,4.53-1.48,4.52-1.47,4.53-1.48,4.53-1.47,4.52-1.48,4.53-1.48,4.52-1.47,4.53-1.48,4.53-1.48,4.52-1.47L63.37,9,67.9,7.48,72.42,6,77,7.5,81.55,9l4.56,1.5L90.67,12l4.57,1.5L99.8,15l4.56,1.5,4.56,1.5,8.38,2.75,8.37,2.75,8.38,2.75L142.42,29l1.5.5,1.5.5,1.5.5,1.5.5V47a1.41,1.41,0,0,1,0,.44c0,.07-.07,0-.11-.15L146.42,31h-2l-8.62,3.25-8.63,3.25-8.62,3.25L109.92,44l-4.43,1.75-4.44,1.75-4.44,1.75L92.17,51l-4.43,1.75L83.3,54.5l-4.44,1.75L74.42,58l-4.65-1.77-4.65-1.78-4.65-1.77L55.82,50.9l-4.65-1.77-4.66-1.77-4.65-1.78-4.65-1.77L32.56,42l-4.65-1.78-4.65-1.77-4.65-1.78L14,34.94,9.3,33.17,4.65,31.39Z"/><path class="cls-4" d="M0,23.62l4.53-1.48,4.52-1.47,4.53-1.48,4.53-1.48,4.52-1.47,4.53-1.48,4.53-1.47,4.52-1.48,4.53-1.48,4.52-1.47,4.53-1.48L54.32,5.9l4.52-1.47L63.37,3,67.9,1.48,72.42,0,77,1.5,81.55,3l4.56,1.5L90.67,6l4.57,1.5L99.8,9l4.56,1.5,4.56,1.5,8.38,2.75,8.37,2.75,8.38,2.75L142.42,23l1.5.5,1.5.5,1.5.5,1.5.5V41a1.41,1.41,0,0,1,0,.44c0,.07-.07,0-.11-.15L146.42,25h-2l-8.62,3.25-8.63,3.25-8.62,3.25L109.92,38l-4.43,1.75-4.44,1.75-4.44,1.75L92.17,45l-4.43,1.75L83.3,48.5l-4.44,1.75L74.42,52l-4.65-1.77-4.65-1.78-4.65-1.77L55.82,44.9l-4.65-1.77-4.66-1.77-4.65-1.78-4.65-1.77L32.56,36l-4.65-1.78-4.65-1.77-4.65-1.78L14,28.94,9.3,27.17,4.65,25.39Z"/></g></g></svg>