<svg xmlns="http://www.w3.org/2000/svg" viewBox="0 0 150.1 168.83"><defs><style>.cls-1{fill:#010101;}.cls-2{fill:#740001;}</style></defs><g id="Layer_2" data-name="Layer 2"><g id="Layer_1-2" data-name="Layer 1"><path class="cls-1" d="M40.42,104.12c2.76,14.51,9.79,24.41,22.79,29.19,13.24,4.87,25.06,1.44,34.8-8.29,3-3,5.1-3.21,8.43-1.39s6.61,3.05,10.42,4.77c-3.31,6.74-8.46,11.33-14.22,15.2-29.52,19.86-69.16,4.53-78.36-30.23-6.47-24.44,4.09-49.78,25.37-61.21,3-1.62,5.84-2.44,8.9-.62,11.27,6.75,22.42,6.53,33.77,0,1.42-.81,4.29-.26,5.92.66,18.2,10.41,27.15,26.26,27.47,47.21.06,3.9-1.55,4.74-5,4.73-24.32-.1-48.64,0-72.95,0Zm65.42-15.89C103.7,74.42,88.43,63.07,73,63.37S43.6,76.5,42.61,88.23Z"/><path class="cls-2" d="M0,23.88C25,15.71,48.9,7.9,72.81.2a7.69,7.69,0,0,1,4.33.31c22.81,7.32,45.58,14.78,68.42,22,3.49,1.1,4.83,2.72,4.48,6.35-.32,3.28-.07,6.62-.07,9.93l-1.75.23-2-13.6c-2.42.79-4.58,1.38-6.65,2.19-20,7.79-40,15.67-60,23.33a11.05,11.05,0,0,1-7.09.43c-23.3-8.51-46.5-17.27-69.73-26C2.09,25.17,1.58,24.78,0,23.88Z"/><path class="cls-2" d="M38,44.53C27.4,52,18.83,61.23,14,73.29,4.13,98,7.26,121,24.49,141.54c3.23,3.85,4.05,6.58.77,10.6A31.37,31.37,0,0,0,19.84,163c6.91-1.29,13.79-2.78,20.74-3.76a18.49,18.49,0,0,1,8.7.62c31.27,11.72,65.21.28,81.2-27.58,16.71-29.09,9.8-63.7-17-85.14l-2.8-2.24c2.38-2.3,4.25-2.07,6.62-.21,35.6,28,33.84,84.65-3.59,110.42-19.41,13.37-40.44,16-62.89,9a24.48,24.48,0,0,0-10.63-.75c-9.51,1.41-18.93,3.41-30.1,5.5l8.18-13.2a57.09,57.09,0,0,1,3.2-5.07c2.14-2.73,1.64-4.71-.61-7.34a68.74,68.74,0,0,1,9.4-98.43c1.79-1.43,4.64-1.55,7-2.27Z"/></g></g></svg>