<svg xmlns="http://www.w3.org/2000/svg" viewBox="0 0 68.52 137.03"><defs><style>.cls-1{fill:#4f4e50;}</style></defs><g id="Layer_2" data-name="Layer 2"><g id="Layer_1-2" data-name="Layer 1"><path class="cls-1" d="M48.9,22.24a3.27,3.27,0,0,1-5.59-2.06H47c1.14,0,2.52,0,3.53,0h1.09q0-.33-.09-.66l0-.13a7.3,7.3,0,0,0-1.19-3.13v0a5.74,5.74,0,0,0-1.22-1,4.68,4.68,0,0,0-.45-.19h0a.39.39,0,0,0-.25,0,3.19,3.19,0,0,1-3.39,0,.76.76,0,0,0-.48,0,5.4,5.4,0,0,0-.64.3,5.32,5.32,0,0,0-1,.83h0a5.27,5.27,0,0,0-1.07,5.18,5,5,0,0,0,5.62,3.45,4.82,4.82,0,0,0,3.3-2.2l-1.43-.7A4,4,0,0,0,48.9,22.24Zm-2.36-6a3.21,3.21,0,0,1,3.13,2.45H43.48A3.17,3.17,0,0,1,46.54,16.21Z"/><path class="cls-1" d="M50.31,16.25v0a3.47,3.47,0,0,0-1.22-1,4.68,4.68,0,0,0-.45-.19h0a5.86,5.86,0,0,0-2.06-.36,5.77,5.77,0,0,0-2.06.36,5.4,5.4,0,0,0-.64.3,3.42,3.42,0,0,0-1,.83h0a2,2,0,0,0-.46,1.26c0,1.42,1.63,2.6,3.72,2.74H47c2.09-.14,3.72-1.32,3.72-2.74A2,2,0,0,0,50.31,16.25Zm-6.83,2.41a3.17,3.17,0,0,1,3.06-2.45,3.21,3.21,0,0,1,3.13,2.45Z"/><path class="cls-1" d="M68,74.14c-1.28-4.12-4.19-6.56-8.34-7.67A57,57,0,0,0,56.38,49a21.1,21.1,0,0,1-1.17-7.12,6.75,6.75,0,0,1,3.08-6.14c6.24-4.71,8.91-11.12,7.76-18.89A19.75,19.75,0,0,0,48.06,0,20,20,0,0,0,27.34,14.25a9.77,9.77,0,0,1-.4,1A61.12,61.12,0,0,0,0,8.82v31H2.22V13.39A54.32,54.32,0,0,1,25.74,19.7,1.77,1.77,0,0,1,26.51,21a19.6,19.6,0,0,0,8.74,15.39,5,5,0,0,1,2.33,4.41c0,2,0,4,0,6.08.07,3.1,2.73,6.08,5.82,6.14s6.28.78,9.2-1.19a52.24,52.24,0,0,1,2.52,14.58H28.75v4.37H48.58a12.54,12.54,0,0,0-2.18,7.16q.1,9.54,0,19.06a5.21,5.21,0,0,1-.87,2.77,54.13,54.13,0,0,1-33.17,22.6c-3.28.76-6.66,1-10.18,1.56V97.29H0v31a60.92,60.92,0,0,0,13.42-1.56c13.23-3,24.12-10,33-20.59,0,5.24,0,10.08,0,14.91a4.89,4.89,0,0,0,.49,2.09c1.65,3.43,3.39,6.83,5.08,10.25,1.13,2.29,2.85,3.7,5.51,3.68a5.81,5.81,0,0,0,5.39-3.65c1.71-3.46,3.46-6.9,5.15-10.37a4.31,4.31,0,0,0,.43-1.83q0-22,0-43.92A11,11,0,0,0,68,74.14ZM50.84,46.19a2.3,2.3,0,0,1-2.43,2.43c-1.24.05-2.49,0-3.73,0-1.83,0-2.65-.87-2.68-2.74,0-.5,0-1,0-1.59h8.85C50.84,45,50.87,45.6,50.84,46.19Zm0-6.47H48.63V38.08c0-2.71.07-5.43,0-8.14-.07-2.13,0-3.86,2.21-5.26,2.41-1.5,2.85-4.83,1.69-7.46a6.71,6.71,0,0,0-7-3.93,6.79,6.79,0,0,0-5.67,5.31A6.45,6.45,0,0,0,43,25.52a2,2,0,0,1,1.19,2.15c0,4,0,8,0,12.07H42c-.31-3.35-2.12-5.61-4.8-7.5A15.16,15.16,0,0,1,31.48,16a15.45,15.45,0,0,1,29.3-1.76,15.23,15.23,0,0,1-5.44,18.23A9.64,9.64,0,0,0,50.82,39.72ZM46.43,26a6.13,6.13,0,1,1,6.13-6.13A6.13,6.13,0,0,1,46.43,26Zm4.48,93.28V84.1h4.26v35.2Zm10.37,7.36c-.82,1.64-1.61,3.3-2.47,4.91-.66,1.23-2,1.32-2.58.14-1.34-2.54-2.59-5.13-4-7.9H62.64C62.15,124.83,61.73,125.75,61.28,126.66ZM64,119.25H59.78V84.05H64Zm0-39.77H50.92c-.76-6.11,3.21-8.73,6.55-8.73C61,70.76,64.77,73.51,64,79.48Z"/><path class="cls-1" d="M.14,50.76H0v4.5H0A13.39,13.39,0,0,1,13.26,68.6,13.38,13.38,0,0,1,0,81.78v4.5A17.71,17.71,0,0,0,17.76,68.7,17.69,17.69,0,0,0,.14,50.76Z"/><path class="cls-1" d="M6.93,118.93c-.22-1.55-.42-2.9-.63-4.41A47.06,47.06,0,0,0,34,100.16c.56.52,1.08,1,1.61,1.49l1.67,1.53A51.39,51.39,0,0,1,6.93,118.93Z"/><path class="cls-1" d="M41.06,98.62,37.47,96l2.76-4.27,3.85,2.22Z"/></g></g></svg>