<svg xmlns="http://www.w3.org/2000/svg" viewBox="0 0 76 267"><defs><style>.cls-1{fill:#4f4e50;}</style></defs><g id="Layer_2" data-name="Layer 2"><g id="Layer_1-2" data-name="Layer 1"><path class="cls-1" d="M40.12,5.17a1.56,1.56,0,0,1-2.68-1H39.2c.55,0,1.2,0,1.69,0h.52c0-.1,0-.21,0-.31V3.8a3.49,3.49,0,0,0-.58-1.49h0a2.52,2.52,0,0,0-.58-.48L40,1.73h-.12a1.53,1.53,0,0,1-1.62,0,.35.35,0,0,0-.23,0l-.31.14a3,3,0,0,0-.47.4h0a2.56,2.56,0,0,0-.51,2.49A2.37,2.37,0,0,0,39.41,6.4,2.28,2.28,0,0,0,41,5.35L40.3,5ZM39,2.29a1.53,1.53,0,0,1,1.5,1.17h-3A1.52,1.52,0,0,1,39,2.29Z"/><path class="cls-1" d="M40.78,2.31h0a1.64,1.64,0,0,0-.58-.48L40,1.73a2.76,2.76,0,0,0-1-.17,2.82,2.82,0,0,0-1,.17l-.31.14a1.69,1.69,0,0,0-.47.4h0a1,1,0,0,0-.22.61c0,.68.78,1.24,1.78,1.31h.41c1-.07,1.78-.63,1.78-1.31A.92.92,0,0,0,40.78,2.31ZM37.52,3.46a1.52,1.52,0,0,1,3,0Z"/><path class="cls-1" d="M40.12,264.2a1.56,1.56,0,0,1-2.68-1H39.2c.55,0,1.2,0,1.69,0h.52c0-.1,0-.21,0-.31v-.07a3.49,3.49,0,0,0-.58-1.49h0a2.25,2.25,0,0,0-.58-.47l-.22-.1h-.12a1.53,1.53,0,0,1-1.62,0,.35.35,0,0,0-.23,0l-.31.14a3,3,0,0,0-.47.4h0a2.56,2.56,0,0,0-.51,2.49,2.37,2.37,0,0,0,2.69,1.64A2.28,2.28,0,0,0,41,264.38l-.69-.33ZM39,261.32a1.54,1.54,0,0,1,1.5,1.17h-3A1.52,1.52,0,0,1,39,261.32Z"/><path class="cls-1" d="M40.78,261.34h0a1.62,1.62,0,0,0-.58-.47l-.22-.1a2.76,2.76,0,0,0-1-.17,2.82,2.82,0,0,0-1,.17l-.31.14a1.69,1.69,0,0,0-.47.4h0a1,1,0,0,0-.22.61c0,.68.78,1.24,1.78,1.31h.41c1-.07,1.78-.63,1.78-1.31A.92.92,0,0,0,40.78,261.34Zm-3.26,1.15A1.52,1.52,0,0,1,39,261.32a1.54,1.54,0,0,1,1.5,1.17Z"/><path class="cls-1" d="M36.18,3A2.77,2.77,0,0,0,36,4V3Z"/><path class="cls-1" d="M42,3V4a2.77,2.77,0,0,0-.18-1Z"/><path class="cls-1" d="M42,4V69a3,3,0,0,0-6,0V4a3,3,0,0,0,6,0Z"/><path class="cls-1" d="M42,69v65a3,3,0,0,0-6,0V69a3,3,0,0,0,6,0Z"/><path class="cls-1" d="M42,134v64a3,3,0,0,0-6,0V134a3,3,0,0,0,6,0Z"/><path class="cls-1" d="M42,198v65a3,3,0,0,0-6,0V198a3,3,0,0,0,6,0Z"/><path class="cls-1" d="M39,0a4,4,0,1,0,4,4A4,4,0,0,0,39,0Zm0,7a3,3,0,0,1-3-3,2.77,2.77,0,0,1,.18-1,3,3,0,0,1,5.64,0A2.77,2.77,0,0,1,42,4,3,3,0,0,1,39,7Z"/><path class="cls-1" d="M42,66.36A4,4,0,1,0,43,69,4,4,0,0,0,42,66.36ZM39,72a3,3,0,1,1,3-3A3,3,0,0,1,39,72Z"/><path class="cls-1" d="M42,131.36A4,4,0,1,0,43,134,4,4,0,0,0,42,131.36ZM39,137a3,3,0,1,1,3-3A3,3,0,0,1,39,137Z"/><path class="cls-1" d="M42,260.36A4,4,0,1,0,43,263,4,4,0,0,0,42,260.36ZM39,266a3,3,0,1,1,3-3A3,3,0,0,1,39,266Z"/><path class="cls-1" d="M42,195.36A4,4,0,1,0,43,198,4,4,0,0,0,42,195.36ZM39,201a3,3,0,1,1,3-3A3,3,0,0,1,39,201Z"/><rect class="cls-1" y="159" width="23" height="2"/><rect class="cls-1" x="4.49" y="164" width="18.51" height="2"/><rect class="cls-1" y="33" width="23" height="2"/><rect class="cls-1" x="4.49" y="38" width="18.51" height="2"/><rect class="cls-1" x="53" y="224" width="23" height="2" transform="translate(129 450) rotate(180)"/><rect class="cls-1" x="53" y="229" width="18.51" height="2" transform="translate(124.51 460) rotate(180)"/><rect class="cls-1" x="53" y="101" width="23" height="2" transform="translate(129 204) rotate(180)"/><rect class="cls-1" x="53" y="106" width="18.51" height="2" transform="translate(124.51 214) rotate(180)"/></g></g></svg>